<?xml version="1.0" encoding="UTF-8" standalone="no"?>
<!DOCTYPE svg PUBLIC "-//W3C//DTD SVG 1.1//EN"
 "http://www.w3.org/Graphics/SVG/1.1/DTD/svg11.dtd">
<!-- Generated by graphviz version 2.43.0 (0)
 -->
<!-- Title: %3 Pages: 1 -->
<svg width="1040pt" height="987pt"
 viewBox="0.00 0.00 1039.50 987.00" xmlns="http://www.w3.org/2000/svg" xmlns:xlink="http://www.w3.org/1999/xlink">
<g id="graph0" class="graph" transform="scale(1 1) rotate(0) translate(4 983)">
<title>%3</title>
<polygon fill="white" stroke="transparent" points="-4,4 -4,-983 1035.5,-983 1035.5,4 -4,4"/>
<!-- sessions -->
<g id="node1" class="node">
<title>sessions</title>
<polygon fill="lightblue" stroke="black" points="0,-624.5 0,-760.5 284,-760.5 284,-624.5 0,-624.5"/>
<text text-anchor="middle" x="142" y="-745.3" font-family="Times,serif" font-size="14.00">sessions</text>
<polyline fill="none" stroke="black" points="0,-737.5 284,-737.5 "/>
<text text-anchor="start" x="8" y="-722.3" font-family="Times,serif" font-size="14.00">session_id (String) PK</text>
<text text-anchor="start" x="8" y="-707.3" font-family="Times,serif" font-size="14.00"> target_host (String) NOT NULL</text>
<text text-anchor="start" x="8" y="-692.3" font-family="Times,serif" font-size="14.00"> state (SQLEnum) NOT NULL</text>
<text text-anchor="start" x="8" y="-677.3" font-family="Times,serif" font-size="14.00"> auth_method (SQLEnum) NOT NULL</text>
<text text-anchor="start" x="8" y="-662.3" font-family="Times,serif" font-size="14.00"> cookies (Text)</text>
<text text-anchor="start" x="8" y="-647.3" font-family="Times,serif" font-size="14.00"> headers (Text)</text>
<text text-anchor="start" x="8" y="-632.3" font-family="Times,serif" font-size="14.00"> ... (8 more)</text>
</g>
<!-- auth_credentials -->
<g id="node2" class="node">
<title>auth_credentials</title>
<polygon fill="lightblue" stroke="black" points="24.5,-835 24.5,-971 259.5,-971 259.5,-835 24.5,-835"/>
<text text-anchor="middle" x="142" y="-955.8" font-family="Times,serif" font-size="14.00">auth_credentials</text>
<polyline fill="none" stroke="black" points="24.5,-948 259.5,-948 "/>
<text text-anchor="start" x="32.5" y="-932.8" font-family="Times,serif" font-size="14.00">id (Integer) PK</text>
<text text-anchor="start" x="32.5" y="-917.8" font-family="Times,serif" font-size="14.00"> session_id (String) FK</text>
<text text-anchor="start" x="32.5" y="-902.8" font-family="Times,serif" font-size="14.00"> username (String) NOT NULL</text>
<text text-anchor="start" x="32.5" y="-887.8" font-family="Times,serif" font-size="14.00"> password (String) NOT NULL</text>
<text text-anchor="start" x="32.5" y="-872.8" font-family="Times,serif" font-size="14.00"> token (String)</text>
<text text-anchor="start" x="32.5" y="-857.8" font-family="Times,serif" font-size="14.00"> api_key (String)</text>
<text text-anchor="start" x="32.5" y="-842.8" font-family="Times,serif" font-size="14.00"> session_id_ref (String)</text>
</g>
<!-- auth_credentials&#45;&gt;sessions -->
<g id="edge1" class="edge">
<title>auth_credentials&#45;&gt;sessions</title>
<path fill="none" stroke="black" d="M142,-834.88C142,-817.76 142,-799.11 142,-781.13"/>
<polygon fill="black" stroke="black" points="142,-780.85 151,-760.85 142,-770.85 142,-760.85 142,-760.85 142,-760.85 142,-770.85 133,-760.85 142,-780.85 142,-780.85"/>
<text text-anchor="middle" x="193.5" y="-797.8" font-family="Times,serif" font-size="14.00">FK: session_id</text>
</g>
<!-- hosts -->
<g id="node3" class="node">
<title>hosts</title>
<polygon fill="lightblue" stroke="black" points="435,-0.5 435,-136.5 689,-136.5 689,-0.5 435,-0.5"/>
<text text-anchor="middle" x="562" y="-121.3" font-family="Times,serif" font-size="14.00">hosts</text>
<polyline fill="none" stroke="black" points="435,-113.5 689,-113.5 "/>
<text text-anchor="start" x="443" y="-98.3" font-family="Times,serif" font-size="14.00">host_id (String) PK</text>
<text text-anchor="start" x="443" y="-83.3" font-family="Times,serif" font-size="14.00"> hostname (String) NOT NULL</text>
<text text-anchor="start" x="443" y="-68.3" font-family="Times,serif" font-size="14.00"> ip_address (String) NOT NULL</text>
<text text-anchor="start" x="443" y="-53.3" font-family="Times,serif" font-size="14.00"> status (SQLEnum) NOT NULL</text>
<text text-anchor="start" x="443" y="-38.3" font-family="Times,serif" font-size="14.00"> discovered_at (Float) NOT NULL</text>
<text text-anchor="start" x="443" y="-23.3" font-family="Times,serif" font-size="14.00"> last_seen (Float) NOT NULL</text>
<text text-anchor="start" x="443" y="-8.3" font-family="Times,serif" font-size="14.00"> ... (4 more)</text>
</g>
<!-- services -->
<g id="node4" class="node">
<title>services</title>
<polygon fill="lightblue" stroke="black" points="362.5,-196 362.5,-347 643.5,-347 643.5,-196 362.5,-196"/>
<text text-anchor="middle" x="503" y="-331.8" font-family="Times,serif" font-size="14.00">services</text>
<polyline fill="none" stroke="black" points="362.5,-324 643.5,-324 "/>
<text text-anchor="start" x="370.5" y="-308.8" font-family="Times,serif" font-size="14.00">service_id (String) PK</text>
<text text-anchor="start" x="370.5" y="-293.8" font-family="Times,serif" font-size="14.00"> host_id (String) FK</text>
<text text-anchor="start" x="370.5" y="-278.8" font-family="Times,serif" font-size="14.00"> port (Integer) NOT NULL</text>
<text text-anchor="start" x="370.5" y="-263.8" font-family="Times,serif" font-size="14.00"> service_type (SQLEnum) NOT NULL</text>
<text text-anchor="start" x="370.5" y="-248.8" font-family="Times,serif" font-size="14.00"> protocol (String) NOT NULL</text>
<text text-anchor="start" x="370.5" y="-233.8" font-family="Times,serif" font-size="14.00"> banner (Text)</text>
<text text-anchor="start" x="370.5" y="-218.8" font-family="Times,serif" font-size="14.00"> version (String)</text>
<text text-anchor="start" x="370.5" y="-203.8" font-family="Times,serif" font-size="14.00"> ... (4 more)</text>
</g>
<!-- services&#45;&gt;hosts -->
<g id="edge2" class="edge">
<title>services&#45;&gt;hosts</title>
<path fill="none" stroke="black" d="M524.89,-195.94C528.72,-182.88 532.74,-169.19 536.66,-155.84"/>
<polygon fill="black" stroke="black" points="536.66,-155.83 550.93,-139.18 539.48,-146.24 542.29,-136.64 542.29,-136.64 542.29,-136.64 539.48,-146.24 533.66,-134.11 536.66,-155.83 536.66,-155.83"/>
<text text-anchor="middle" x="577.5" y="-158.8" font-family="Times,serif" font-size="14.00">FK: host_id</text>
</g>
<!-- vulnerabilities -->
<g id="node5" class="node">
<title>vulnerabilities</title>
<polygon fill="lightblue" stroke="black" points="362,-406.5 362,-557.5 616,-557.5 616,-406.5 362,-406.5"/>
<text text-anchor="middle" x="489" y="-542.3" font-family="Times,serif" font-size="14.00">vulnerabilities</text>
<polyline fill="none" stroke="black" points="362,-534.5 616,-534.5 "/>
<text text-anchor="start" x="370" y="-519.3" font-family="Times,serif" font-size="14.00">vuln_id (String) PK</text>
<text text-anchor="start" x="370" y="-504.3" font-family="Times,serif" font-size="14.00"> service_id (String) FK</text>
<text text-anchor="start" x="370" y="-489.3" font-family="Times,serif" font-size="14.00"> vuln_type (String) NOT NULL</text>
<text text-anchor="start" x="370" y="-474.3" font-family="Times,serif" font-size="14.00"> severity (SQLEnum) NOT NULL</text>
<text text-anchor="start" x="370" y="-459.3" font-family="Times,serif" font-size="14.00"> description (Text) NOT NULL</text>
<text text-anchor="start" x="370" y="-444.3" font-family="Times,serif" font-size="14.00"> discovered_at (Float) NOT NULL</text>
<text text-anchor="start" x="370" y="-429.3" font-family="Times,serif" font-size="14.00"> cve_id (String)</text>
<text text-anchor="start" x="370" y="-414.3" font-family="Times,serif" font-size="14.00"> ... (5 more)</text>
</g>
<!-- vulnerabilities&#45;&gt;services -->
<g id="edge3" class="edge">
<title>vulnerabilities&#45;&gt;services</title>
<path fill="none" stroke="black" d="M494.01,-406.32C494.86,-393.66 495.76,-380.38 496.64,-367.29"/>
<polygon fill="black" stroke="black" points="496.66,-366.97 506.98,-347.62 497.33,-356.99 498,-347.01 498,-347.01 498,-347.01 497.33,-356.99 489.02,-346.41 496.66,-366.97 496.66,-366.97"/>
<text text-anchor="middle" x="546.5" y="-376.8" font-family="Times,serif" font-size="14.00">FK: service_id</text>
</g>
<!-- connections -->
<g id="node6" class="node">
<title>connections</title>
<polygon fill="lightblue" stroke="black" points="662,-188.5 662,-354.5 942,-354.5 942,-188.5 662,-188.5"/>
<text text-anchor="middle" x="802" y="-339.3" font-family="Times,serif" font-size="14.00">connections</text>
<polyline fill="none" stroke="black" points="662,-331.5 942,-331.5 "/>
<text text-anchor="start" x="670" y="-316.3" font-family="Times,serif" font-size="14.00">connection_id (String) PK</text>
<text text-anchor="start" x="670" y="-301.3" font-family="Times,serif" font-size="14.00"> source_host (String) FK</text>
<text text-anchor="start" x="670" y="-286.3" font-family="Times,serif" font-size="14.00"> target_host (String) FK</text>
<text text-anchor="start" x="670" y="-271.3" font-family="Times,serif" font-size="14.00"> connection_type (String) NOT NULL</text>
<text text-anchor="start" x="670" y="-256.3" font-family="Times,serif" font-size="14.00"> protocol (String) NOT NULL</text>
<text text-anchor="start" x="670" y="-241.3" font-family="Times,serif" font-size="14.00"> port (Integer) NOT NULL</text>
<text text-anchor="start" x="670" y="-226.3" font-family="Times,serif" font-size="14.00"> established_at (Float) NOT NULL</text>
<text text-anchor="start" x="670" y="-211.3" font-family="Times,serif" font-size="14.00"> last_seen (Float) NOT NULL</text>
<text text-anchor="start" x="670" y="-196.3" font-family="Times,serif" font-size="14.00"> ... (2 more)</text>
</g>
<!-- connections&#45;&gt;hosts -->
<g id="edge4" class="edge">
<title>connections&#45;&gt;hosts</title>
<path fill="none" stroke="black" d="M679.55,-188.4C671.79,-182.35 664.2,-176.19 657,-170 650.01,-164 642.98,-157.53 636.08,-150.88"/>
<polygon fill="black" stroke="black" points="635.9,-150.7 628.05,-130.22 628.8,-143.65 621.71,-136.6 621.71,-136.6 621.71,-136.6 628.8,-143.65 615.37,-142.99 635.9,-150.7 635.9,-150.7"/>
<text text-anchor="middle" x="714.5" y="-158.8" font-family="Times,serif" font-size="14.00">FK: source_host</text>
</g>
<!-- connections&#45;&gt;hosts -->
<g id="edge5" class="edge">
<title>connections&#45;&gt;hosts</title>
<path fill="none" stroke="black" d="M790.9,-188.4C786.48,-176.23 780.39,-164.59 772,-155 754.59,-135.12 731.87,-119.78 707.82,-107.98"/>
<polygon fill="black" stroke="black" points="707.48,-107.82 692.93,-91.41 698.36,-103.72 689.24,-99.62 689.24,-99.62 689.24,-99.62 698.36,-103.72 685.55,-107.83 707.48,-107.82 707.48,-107.82"/>
<text text-anchor="middle" x="838" y="-158.8" font-family="Times,serif" font-size="14.00">FK: target_host</text>
</g>
<!-- host_vulnerabilities -->
<g id="node7" class="node">
<title>host_vulnerabilities</title>
<polygon fill="lightblue" stroke="black" points="302.5,-662 302.5,-723 459.5,-723 459.5,-662 302.5,-662"/>
<text text-anchor="middle" x="381" y="-707.8" font-family="Times,serif" font-size="14.00">host_vulnerabilities</text>
<polyline fill="none" stroke="black" points="302.5,-700 459.5,-700 "/>
<text text-anchor="start" x="310.5" y="-684.8" font-family="Times,serif" font-size="14.00">host_id (String) PK</text>
<text text-anchor="start" x="310.5" y="-669.8" font-family="Times,serif" font-size="14.00"> vuln_id (String) PK</text>
</g>
<!-- host_vulnerabilities&#45;&gt;hosts -->
<g id="edge6" class="edge">
<title>host_vulnerabilities&#45;&gt;hosts</title>
<path fill="none" stroke="black" d="M368.86,-661.93C337.29,-579.96 261.22,-345.54 353,-188 368.29,-161.76 391.78,-140.86 417.58,-124.39"/>
<polygon fill="black" stroke="black" points="417.59,-124.38 439.39,-121.93 426.2,-119.29 434.8,-114.19 434.8,-114.19 434.8,-114.19 426.2,-119.29 430.22,-106.45 417.59,-124.38 417.59,-124.38"/>
<text text-anchor="middle" x="350.5" y="-376.8" font-family="Times,serif" font-size="14.00">FK: host_id</text>
</g>
<!-- host_vulnerabilities&#45;&gt;vulnerabilities -->
<g id="edge7" class="edge">
<title>host_vulnerabilities&#45;&gt;vulnerabilities</title>
<path fill="none" stroke="black" d="M396.47,-661.63C409.32,-636.82 428.25,-600.29 445.64,-566.71"/>
<polygon fill="black" stroke="black" points="440.46,-554.97 458.22,-564.17 456.38,-567.72 438.62,-558.52 440.46,-554.97"/>
<polyline fill="none" stroke="black" points="450.26,-557.79 445.66,-566.67 "/>
<text text-anchor="middle" x="479.5" y="-579.8" font-family="Times,serif" font-size="14.00">FK: vuln_id</text>
</g>
<!-- websites -->
<g id="node8" class="node">
<title>websites</title>
<polygon fill="lightblue" stroke="black" points="634,-406.5 634,-557.5 900,-557.5 900,-406.5 634,-406.5"/>
<text text-anchor="middle" x="767" y="-542.3" font-family="Times,serif" font-size="14.00">websites</text>
<polyline fill="none" stroke="black" points="634,-534.5 900,-534.5 "/>
<text text-anchor="start" x="642" y="-519.3" font-family="Times,serif" font-size="14.00">website_id (String) PK</text>
<text text-anchor="start" x="642" y="-504.3" font-family="Times,serif" font-size="14.00"> service_id (String) FK</text>
<text text-anchor="start" x="642" y="-489.3" font-family="Times,serif" font-size="14.00"> base_url (String) NOT NULL</text>
<text text-anchor="start" x="642" y="-474.3" font-family="Times,serif" font-size="14.00"> title (String)</text>
<text text-anchor="start" x="642" y="-459.3" font-family="Times,serif" font-size="14.00"> description (Text)</text>
<text text-anchor="start" x="642" y="-444.3" font-family="Times,serif" font-size="14.00"> discovered_at (Float) NOT NULL</text>
<text text-anchor="start" x="642" y="-429.3" font-family="Times,serif" font-size="14.00"> last_crawled_at (Float) NOT NULL</text>
<text text-anchor="start" x="642" y="-414.3" font-family="Times,serif" font-size="14.00"> ... (6 more)</text>
</g>
<!-- websites&#45;&gt;services -->
<g id="edge8" class="edge">
<title>websites&#45;&gt;services</title>
<path fill="none" stroke="black" d="M672.44,-406.32C653.27,-391.18 632.95,-375.13 613.3,-359.61"/>
<polygon fill="black" stroke="black" points="613.04,-359.41 602.93,-339.95 605.2,-353.21 597.35,-347.01 597.35,-347.01 597.35,-347.01 605.2,-353.21 591.77,-354.08 613.04,-359.41 613.04,-359.41"/>
<text text-anchor="middle" x="693.5" y="-376.8" font-family="Times,serif" font-size="14.00">FK: service_id</text>
</g>
<!-- website_pages -->
<g id="node9" class="node">
<title>website_pages</title>
<polygon fill="lightblue" stroke="black" points="659.5,-609.5 659.5,-775.5 874.5,-775.5 874.5,-609.5 659.5,-609.5"/>
<text text-anchor="middle" x="767" y="-760.3" font-family="Times,serif" font-size="14.00">website_pages</text>
<polyline fill="none" stroke="black" points="659.5,-752.5 874.5,-752.5 "/>
<text text-anchor="start" x="667.5" y="-737.3" font-family="Times,serif" font-size="14.00">page_id (String) PK</text>
<text text-anchor="start" x="667.5" y="-722.3" font-family="Times,serif" font-size="14.00"> website_id (String) FK</text>
<text text-anchor="start" x="667.5" y="-707.3" font-family="Times,serif" font-size="14.00"> parent_page_id (String) FK</text>
<text text-anchor="start" x="667.5" y="-692.3" font-family="Times,serif" font-size="14.00"> url (String) NOT NULL</text>
<text text-anchor="start" x="667.5" y="-677.3" font-family="Times,serif" font-size="14.00"> method (String)</text>
<text text-anchor="start" x="667.5" y="-662.3" font-family="Times,serif" font-size="14.00"> status_code (Integer)</text>
<text text-anchor="start" x="667.5" y="-647.3" font-family="Times,serif" font-size="14.00"> content_type (String)</text>
<text text-anchor="start" x="667.5" y="-632.3" font-family="Times,serif" font-size="14.00"> title (String)</text>
<text text-anchor="start" x="667.5" y="-617.3" font-family="Times,serif" font-size="14.00"> ... (6 more)</text>
</g>
<!-- website_pages&#45;&gt;websites -->
<g id="edge9" class="edge">
<title>website_pages&#45;&gt;websites</title>
<path fill="none" stroke="black" d="M767,-609.39C767,-598.98 767,-588.25 767,-577.66"/>
<polygon fill="black" stroke="black" points="767,-577.57 776,-557.57 767,-567.57 767,-557.57 767,-557.57 767,-557.57 767,-567.57 758,-557.57 767,-577.57 767,-577.57"/>
<text text-anchor="middle" x="820" y="-579.8" font-family="Times,serif" font-size="14.00">FK: website_id</text>
</g>
<!-- website_pages&#45;&gt;website_pages -->
<g id="edge10" class="edge">
<title>website_pages&#45;&gt;website_pages</title>
<path fill="none" stroke="black" d="M874.56,-709.15C885.51,-705.85 892.5,-700.3 892.5,-692.5 892.5,-690.55 892.06,-688.74 891.24,-687.07"/>
<polygon fill="black" stroke="black" points="891.15,-687.01 879.58,-668.39 882.86,-681.43 874.56,-675.85 874.56,-675.85 874.56,-675.85 882.86,-681.43 869.54,-683.32 891.15,-687.01 891.15,-687.01"/>
<text text-anchor="middle" x="962" y="-688.8" font-family="Times,serif" font-size="14.00">FK: parent_page_id</text>
</g>
<!-- website_page_forms -->
<g id="node10" class="node">
<title>website_page_forms</title>
<polygon fill="lightblue" stroke="black" points="540,-827.5 540,-978.5 746,-978.5 746,-827.5 540,-827.5"/>
<text text-anchor="middle" x="643" y="-963.3" font-family="Times,serif" font-size="14.00">website_page_forms</text>
<polyline fill="none" stroke="black" points="540,-955.5 746,-955.5 "/>
<text text-anchor="start" x="548" y="-940.3" font-family="Times,serif" font-size="14.00">form_id (String) PK</text>
<text text-anchor="start" x="548" y="-925.3" font-family="Times,serif" font-size="14.00"> page_id (String) FK</text>
<text text-anchor="start" x="548" y="-910.3" font-family="Times,serif" font-size="14.00"> form_action (String)</text>
<text text-anchor="start" x="548" y="-895.3" font-family="Times,serif" font-size="14.00"> form_method (String)</text>
<text text-anchor="start" x="548" y="-880.3" font-family="Times,serif" font-size="14.00"> form_name (String)</text>
<text text-anchor="start" x="548" y="-865.3" font-family="Times,serif" font-size="14.00"> form_id_attribute (String)</text>
<text text-anchor="start" x="548" y="-850.3" font-family="Times,serif" font-size="14.00"> form_class (String)</text>
<text text-anchor="start" x="548" y="-835.3" font-family="Times,serif" font-size="14.00"> ... (4 more)</text>
</g>
<!-- website_page_forms&#45;&gt;website_pages -->
<g id="edge11" class="edge">
<title>website_page_forms&#45;&gt;website_pages</title>
<path fill="none" stroke="black" d="M687.42,-827.32C694.02,-816.22 700.9,-804.64 707.75,-793.13"/>
<polygon fill="black" stroke="black" points="707.83,-792.98 725.79,-780.39 712.95,-784.39 718.06,-775.79 718.06,-775.79 718.06,-775.79 712.95,-784.39 710.32,-771.19 707.83,-792.98 707.83,-792.98"/>
<text text-anchor="middle" x="747.5" y="-797.8" font-family="Times,serif" font-size="14.00">FK: page_id</text>
</g>
<!-- website_page_endpoints -->
<g id="node11" class="node">
<title>website_page_endpoints</title>
<polygon fill="lightblue" stroke="black" points="764,-827.5 764,-978.5 1018,-978.5 1018,-827.5 764,-827.5"/>
<text text-anchor="middle" x="891" y="-963.3" font-family="Times,serif" font-size="14.00">website_page_endpoints</text>
<polyline fill="none" stroke="black" points="764,-955.5 1018,-955.5 "/>
<text text-anchor="start" x="772" y="-940.3" font-family="Times,serif" font-size="14.00">endpoint_id (String) PK</text>
<text text-anchor="start" x="772" y="-925.3" font-family="Times,serif" font-size="14.00"> page_id (String) FK</text>
<text text-anchor="start" x="772" y="-910.3" font-family="Times,serif" font-size="14.00"> endpoint_path (String)</text>
<text text-anchor="start" x="772" y="-895.3" font-family="Times,serif" font-size="14.00"> method (String) NOT NULL</text>
<text text-anchor="start" x="772" y="-880.3" font-family="Times,serif" font-size="14.00"> content_type (String)</text>
<text text-anchor="start" x="772" y="-865.3" font-family="Times,serif" font-size="14.00"> discovered_at (Float) NOT NULL</text>
<text text-anchor="start" x="772" y="-850.3" font-family="Times,serif" font-size="14.00"> is_api_endpoint (Boolean)</text>
<text text-anchor="start" x="772" y="-835.3" font-family="Times,serif" font-size="14.00"> ... (1 more)</text>
</g>
<!-- website_page_endpoints&#45;&gt;website_pages -->
<g id="edge12" class="edge">
<title>website_page_endpoints&#45;&gt;website_pages</title>
<path fill="none" stroke="black" d="M846.58,-827.32C839.98,-816.22 833.1,-804.64 826.25,-793.13"/>
<polygon fill="black" stroke="black" points="826.17,-792.98 823.68,-771.19 821.05,-784.39 815.94,-775.79 815.94,-775.79 815.94,-775.79 821.05,-784.39 808.21,-780.39 826.17,-792.98 826.17,-792.98"/>
<text text-anchor="middle" x="875.5" y="-797.8" font-family="Times,serif" font-size="14.00">FK: page_id</text>
</g>
</g>
</svg>
