<?xml version="1.0" encoding="UTF-8" standalone="no"?>
<!DOCTYPE svg PUBLIC "-//W3C//DTD SVG 1.1//EN"
 "http://www.w3.org/Graphics/SVG/1.1/DTD/svg11.dtd">
<!-- Generated by graphviz version 2.43.0 (0)
 -->
<!-- Title: %3 Pages: 1 -->
<svg width="953pt" height="754pt"
 viewBox="0.00 0.00 953.00 754.00" xmlns="http://www.w3.org/2000/svg" xmlns:xlink="http://www.w3.org/1999/xlink">
<g id="graph0" class="graph" transform="scale(1 1) rotate(0) translate(4 750)">
<title>%3</title>
<polygon fill="white" stroke="transparent" points="-4,4 -4,-750 949,-750 949,4 -4,4"/>
<!-- sessions -->
<g id="node1" class="node">
<title>sessions</title>
<polygon fill="lightblue" stroke="black" points="0,-414 0,-550 284,-550 284,-414 0,-414"/>
<text text-anchor="middle" x="142" y="-534.8" font-family="Times,serif" font-size="14.00">sessions</text>
<polyline fill="none" stroke="black" points="0,-527 284,-527 "/>
<text text-anchor="start" x="8" y="-511.8" font-family="Times,serif" font-size="14.00">session_id (String) PK</text>
<text text-anchor="start" x="8" y="-496.8" font-family="Times,serif" font-size="14.00"> target_host (String) NOT NULL</text>
<text text-anchor="start" x="8" y="-481.8" font-family="Times,serif" font-size="14.00"> state (SQLEnum) NOT NULL</text>
<text text-anchor="start" x="8" y="-466.8" font-family="Times,serif" font-size="14.00"> auth_method (SQLEnum) NOT NULL</text>
<text text-anchor="start" x="8" y="-451.8" font-family="Times,serif" font-size="14.00"> cookies (Text)</text>
<text text-anchor="start" x="8" y="-436.8" font-family="Times,serif" font-size="14.00"> headers (Text)</text>
<text text-anchor="start" x="8" y="-421.8" font-family="Times,serif" font-size="14.00"> ... (8 more)</text>
</g>
<!-- auth_credentials -->
<g id="node2" class="node">
<title>auth_credentials</title>
<polygon fill="lightblue" stroke="black" points="24.5,-609.5 24.5,-745.5 259.5,-745.5 259.5,-609.5 24.5,-609.5"/>
<text text-anchor="middle" x="142" y="-730.3" font-family="Times,serif" font-size="14.00">auth_credentials</text>
<polyline fill="none" stroke="black" points="24.5,-722.5 259.5,-722.5 "/>
<text text-anchor="start" x="32.5" y="-707.3" font-family="Times,serif" font-size="14.00">id (Integer) PK</text>
<text text-anchor="start" x="32.5" y="-692.3" font-family="Times,serif" font-size="14.00"> session_id (String) FK</text>
<text text-anchor="start" x="32.5" y="-677.3" font-family="Times,serif" font-size="14.00"> username (String) NOT NULL</text>
<text text-anchor="start" x="32.5" y="-662.3" font-family="Times,serif" font-size="14.00"> password (String) NOT NULL</text>
<text text-anchor="start" x="32.5" y="-647.3" font-family="Times,serif" font-size="14.00"> token (String)</text>
<text text-anchor="start" x="32.5" y="-632.3" font-family="Times,serif" font-size="14.00"> api_key (String)</text>
<text text-anchor="start" x="32.5" y="-617.3" font-family="Times,serif" font-size="14.00"> session_id_ref (String)</text>
</g>
<!-- auth_credentials&#45;&gt;sessions -->
<g id="edge1" class="edge">
<title>auth_credentials&#45;&gt;sessions</title>
<path fill="none" stroke="black" d="M142,-609.37C142,-596.76 142,-583.41 142,-570.29"/>
<polygon fill="black" stroke="black" points="142,-570.02 151,-550.02 142,-560.02 142,-550.02 142,-550.02 142,-550.02 142,-560.02 133,-550.02 142,-570.02 142,-570.02"/>
<text text-anchor="middle" x="193.5" y="-579.8" font-family="Times,serif" font-size="14.00">FK: session_id</text>
</g>
<!-- hosts -->
<g id="node3" class="node">
<title>hosts</title>
<polygon fill="lightblue" stroke="black" points="438,-0.5 438,-136.5 692,-136.5 692,-0.5 438,-0.5"/>
<text text-anchor="middle" x="565" y="-121.3" font-family="Times,serif" font-size="14.00">hosts</text>
<polyline fill="none" stroke="black" points="438,-113.5 692,-113.5 "/>
<text text-anchor="start" x="446" y="-98.3" font-family="Times,serif" font-size="14.00">host_id (String) PK</text>
<text text-anchor="start" x="446" y="-83.3" font-family="Times,serif" font-size="14.00"> hostname (String) NOT NULL</text>
<text text-anchor="start" x="446" y="-68.3" font-family="Times,serif" font-size="14.00"> ip_address (String) NOT NULL</text>
<text text-anchor="start" x="446" y="-53.3" font-family="Times,serif" font-size="14.00"> status (SQLEnum) NOT NULL</text>
<text text-anchor="start" x="446" y="-38.3" font-family="Times,serif" font-size="14.00"> discovered_at (Float) NOT NULL</text>
<text text-anchor="start" x="446" y="-23.3" font-family="Times,serif" font-size="14.00"> last_seen (Float) NOT NULL</text>
<text text-anchor="start" x="446" y="-8.3" font-family="Times,serif" font-size="14.00"> ... (4 more)</text>
</g>
<!-- services -->
<g id="node4" class="node">
<title>services</title>
<polygon fill="lightblue" stroke="black" points="365.5,-196 365.5,-347 646.5,-347 646.5,-196 365.5,-196"/>
<text text-anchor="middle" x="506" y="-331.8" font-family="Times,serif" font-size="14.00">services</text>
<polyline fill="none" stroke="black" points="365.5,-324 646.5,-324 "/>
<text text-anchor="start" x="373.5" y="-308.8" font-family="Times,serif" font-size="14.00">service_id (String) PK</text>
<text text-anchor="start" x="373.5" y="-293.8" font-family="Times,serif" font-size="14.00"> host_id (String) FK</text>
<text text-anchor="start" x="373.5" y="-278.8" font-family="Times,serif" font-size="14.00"> port (Integer) NOT NULL</text>
<text text-anchor="start" x="373.5" y="-263.8" font-family="Times,serif" font-size="14.00"> service_type (SQLEnum) NOT NULL</text>
<text text-anchor="start" x="373.5" y="-248.8" font-family="Times,serif" font-size="14.00"> protocol (String) NOT NULL</text>
<text text-anchor="start" x="373.5" y="-233.8" font-family="Times,serif" font-size="14.00"> banner (Text)</text>
<text text-anchor="start" x="373.5" y="-218.8" font-family="Times,serif" font-size="14.00"> version (String)</text>
<text text-anchor="start" x="373.5" y="-203.8" font-family="Times,serif" font-size="14.00"> ... (4 more)</text>
</g>
<!-- services&#45;&gt;hosts -->
<g id="edge2" class="edge">
<title>services&#45;&gt;hosts</title>
<path fill="none" stroke="black" d="M527.89,-195.94C531.72,-182.88 535.74,-169.19 539.66,-155.84"/>
<polygon fill="black" stroke="black" points="539.66,-155.83 553.93,-139.18 542.48,-146.24 545.29,-136.64 545.29,-136.64 545.29,-136.64 542.48,-146.24 536.66,-134.11 539.66,-155.83 539.66,-155.83"/>
<text text-anchor="middle" x="580.5" y="-158.8" font-family="Times,serif" font-size="14.00">FK: host_id</text>
</g>
<!-- vulnerabilities -->
<g id="node5" class="node">
<title>vulnerabilities</title>
<polygon fill="lightblue" stroke="black" points="372,-406.5 372,-557.5 626,-557.5 626,-406.5 372,-406.5"/>
<text text-anchor="middle" x="499" y="-542.3" font-family="Times,serif" font-size="14.00">vulnerabilities</text>
<polyline fill="none" stroke="black" points="372,-534.5 626,-534.5 "/>
<text text-anchor="start" x="380" y="-519.3" font-family="Times,serif" font-size="14.00">vuln_id (String) PK</text>
<text text-anchor="start" x="380" y="-504.3" font-family="Times,serif" font-size="14.00"> service_id (String) FK</text>
<text text-anchor="start" x="380" y="-489.3" font-family="Times,serif" font-size="14.00"> vuln_type (String) NOT NULL</text>
<text text-anchor="start" x="380" y="-474.3" font-family="Times,serif" font-size="14.00"> severity (SQLEnum) NOT NULL</text>
<text text-anchor="start" x="380" y="-459.3" font-family="Times,serif" font-size="14.00"> description (Text) NOT NULL</text>
<text text-anchor="start" x="380" y="-444.3" font-family="Times,serif" font-size="14.00"> discovered_at (Float) NOT NULL</text>
<text text-anchor="start" x="380" y="-429.3" font-family="Times,serif" font-size="14.00"> cve_id (String)</text>
<text text-anchor="start" x="380" y="-414.3" font-family="Times,serif" font-size="14.00"> ... (5 more)</text>
</g>
<!-- vulnerabilities&#45;&gt;services -->
<g id="edge3" class="edge">
<title>vulnerabilities&#45;&gt;services</title>
<path fill="none" stroke="black" d="M501.51,-406.32C501.93,-393.66 502.38,-380.38 502.82,-367.29"/>
<polygon fill="black" stroke="black" points="502.83,-367 512.49,-347.32 503.16,-357.01 503.5,-347.01 503.5,-347.01 503.5,-347.01 503.16,-357.01 494.5,-346.71 502.83,-367 502.83,-367"/>
<text text-anchor="middle" x="553.5" y="-376.8" font-family="Times,serif" font-size="14.00">FK: service_id</text>
</g>
<!-- connections -->
<g id="node6" class="node">
<title>connections</title>
<polygon fill="lightblue" stroke="black" points="665,-188.5 665,-354.5 945,-354.5 945,-188.5 665,-188.5"/>
<text text-anchor="middle" x="805" y="-339.3" font-family="Times,serif" font-size="14.00">connections</text>
<polyline fill="none" stroke="black" points="665,-331.5 945,-331.5 "/>
<text text-anchor="start" x="673" y="-316.3" font-family="Times,serif" font-size="14.00">connection_id (String) PK</text>
<text text-anchor="start" x="673" y="-301.3" font-family="Times,serif" font-size="14.00"> source_host (String) FK</text>
<text text-anchor="start" x="673" y="-286.3" font-family="Times,serif" font-size="14.00"> target_host (String) FK</text>
<text text-anchor="start" x="673" y="-271.3" font-family="Times,serif" font-size="14.00"> connection_type (String) NOT NULL</text>
<text text-anchor="start" x="673" y="-256.3" font-family="Times,serif" font-size="14.00"> protocol (String) NOT NULL</text>
<text text-anchor="start" x="673" y="-241.3" font-family="Times,serif" font-size="14.00"> port (Integer) NOT NULL</text>
<text text-anchor="start" x="673" y="-226.3" font-family="Times,serif" font-size="14.00"> established_at (Float) NOT NULL</text>
<text text-anchor="start" x="673" y="-211.3" font-family="Times,serif" font-size="14.00"> last_seen (Float) NOT NULL</text>
<text text-anchor="start" x="673" y="-196.3" font-family="Times,serif" font-size="14.00"> ... (2 more)</text>
</g>
<!-- connections&#45;&gt;hosts -->
<g id="edge4" class="edge">
<title>connections&#45;&gt;hosts</title>
<path fill="none" stroke="black" d="M682.55,-188.4C674.79,-182.35 667.2,-176.19 660,-170 653.01,-164 645.98,-157.53 639.08,-150.88"/>
<polygon fill="black" stroke="black" points="638.9,-150.7 631.05,-130.22 631.8,-143.65 624.71,-136.6 624.71,-136.6 624.71,-136.6 631.8,-143.65 618.37,-142.99 638.9,-150.7 638.9,-150.7"/>
<text text-anchor="middle" x="717.5" y="-158.8" font-family="Times,serif" font-size="14.00">FK: source_host</text>
</g>
<!-- connections&#45;&gt;hosts -->
<g id="edge5" class="edge">
<title>connections&#45;&gt;hosts</title>
<path fill="none" stroke="black" d="M793.9,-188.4C789.48,-176.23 783.39,-164.59 775,-155 757.59,-135.12 734.87,-119.78 710.82,-107.98"/>
<polygon fill="black" stroke="black" points="710.48,-107.82 695.93,-91.41 701.36,-103.72 692.24,-99.62 692.24,-99.62 692.24,-99.62 701.36,-103.72 688.55,-107.83 710.48,-107.82 710.48,-107.82"/>
<text text-anchor="middle" x="841" y="-158.8" font-family="Times,serif" font-size="14.00">FK: target_host</text>
</g>
<!-- host_vulnerabilities -->
<g id="node7" class="node">
<title>host_vulnerabilities</title>
<polygon fill="lightblue" stroke="black" points="277.5,-647 277.5,-708 434.5,-708 434.5,-647 277.5,-647"/>
<text text-anchor="middle" x="356" y="-692.8" font-family="Times,serif" font-size="14.00">host_vulnerabilities</text>
<polyline fill="none" stroke="black" points="277.5,-685 434.5,-685 "/>
<text text-anchor="start" x="285.5" y="-669.8" font-family="Times,serif" font-size="14.00">host_id (String) PK</text>
<text text-anchor="start" x="285.5" y="-654.8" font-family="Times,serif" font-size="14.00"> vuln_id (String) PK</text>
</g>
<!-- host_vulnerabilities&#45;&gt;hosts -->
<g id="edge6" class="edge">
<title>host_vulnerabilities&#45;&gt;hosts</title>
<path fill="none" stroke="black" d="M346.46,-646.92C322.44,-566.55 267.42,-340.06 356,-188 371.29,-161.76 394.78,-140.86 420.58,-124.39"/>
<polygon fill="black" stroke="black" points="420.59,-124.38 442.39,-121.93 429.2,-119.29 437.8,-114.19 437.8,-114.19 437.8,-114.19 429.2,-119.29 433.22,-106.45 420.59,-124.38 420.59,-124.38"/>
<text text-anchor="middle" x="348.5" y="-376.8" font-family="Times,serif" font-size="14.00">FK: host_id</text>
</g>
<!-- host_vulnerabilities&#45;&gt;vulnerabilities -->
<g id="edge7" class="edge">
<title>host_vulnerabilities&#45;&gt;vulnerabilities</title>
<path fill="none" stroke="black" d="M378.03,-646.69C394.07,-624.98 416.63,-594.46 437.92,-565.64"/>
<polygon fill="black" stroke="black" points="434.66,-553.24 450.74,-565.12 448.37,-568.34 432.28,-556.45 434.66,-553.24"/>
<polyline fill="none" stroke="black" points="443.89,-557.57 437.95,-565.61 "/>
<text text-anchor="middle" x="468.5" y="-579.8" font-family="Times,serif" font-size="14.00">FK: vuln_id</text>
</g>
</g>
</svg>
