<?xml version="1.0" encoding="UTF-8" standalone="no"?>
<!DOCTYPE svg PUBLIC "-//W3C//DTD SVG 1.1//EN"
 "http://www.w3.org/Graphics/SVG/1.1/DTD/svg11.dtd">
<!-- Generated by graphviz version 2.43.0 (0)
 -->
<!-- Title: %3 Pages: 1 -->
<svg width="3937pt" height="881pt"
 viewBox="0.00 0.00 3937.19 881.00" xmlns="http://www.w3.org/2000/svg" xmlns:xlink="http://www.w3.org/1999/xlink">
<g id="graph0" class="graph" transform="scale(1 1) rotate(0) translate(4 877)">
<title>%3</title>
<polygon fill="white" stroke="transparent" points="-4,4 -4,-877 3933.19,-877 3933.19,4 -4,4"/>
<!-- ExecutionStep -->
<g id="node1" class="node">
<title>ExecutionStep</title>
<polygon fill="none" stroke="black" points="1306.5,-759.5 1306.5,-872.5 1427.5,-872.5 1427.5,-759.5 1306.5,-759.5"/>
<text text-anchor="middle" x="1367" y="-857.3" font-family="Times,serif" font-size="14.00">ExecutionStep</text>
<text text-anchor="middle" x="1367" y="-842.3" font-family="Times,serif" font-size="14.00"> step_id</text>
<text text-anchor="middle" x="1367" y="-827.3" font-family="Times,serif" font-size="14.00"> step_name</text>
<text text-anchor="middle" x="1367" y="-812.3" font-family="Times,serif" font-size="14.00"> target_url</text>
<text text-anchor="middle" x="1367" y="-797.3" font-family="Times,serif" font-size="14.00"> payload</text>
<text text-anchor="middle" x="1367" y="-782.3" font-family="Times,serif" font-size="14.00"> status</text>
<text text-anchor="middle" x="1367" y="-767.3" font-family="Times,serif" font-size="14.00"> ...</text>
</g>
<!-- ExploitationResult -->
<g id="node14" class="node">
<title>ExploitationResult</title>
<polygon fill="none" stroke="black" points="521,-594.5 521,-707.5 741,-707.5 741,-594.5 521,-594.5"/>
<text text-anchor="middle" x="631" y="-692.3" font-family="Times,serif" font-size="14.00">ExploitationResult</text>
<text text-anchor="middle" x="631" y="-677.3" font-family="Times,serif" font-size="14.00"> vulnerability</text>
<text text-anchor="middle" x="631" y="-662.3" font-family="Times,serif" font-size="14.00"> reverse_shell_connection_id</text>
<text text-anchor="middle" x="631" y="-647.3" font-family="Times,serif" font-size="14.00"> reverse_shell_port</text>
<text text-anchor="middle" x="631" y="-632.3" font-family="Times,serif" font-size="14.00"> connection_successful</text>
<text text-anchor="middle" x="631" y="-617.3" font-family="Times,serif" font-size="14.00"> commands_executed</text>
<text text-anchor="middle" x="631" y="-602.3" font-family="Times,serif" font-size="14.00"> ...</text>
</g>
<!-- ExecutionStep&#45;&gt;ExploitationResult -->
<g id="edge2" class="edge">
<title>ExecutionStep&#45;&gt;ExploitationResult</title>
<path fill="none" stroke="black" d="M1306.46,-802.78C1235.91,-788.44 1115.84,-763.73 1013,-741 925.18,-721.59 826.31,-698.52 751.15,-680.73"/>
<polygon fill="black" stroke="black" points="751.71,-677.27 741.18,-678.37 750.1,-684.08 751.71,-677.27"/>
<text text-anchor="middle" x="1166.5" y="-729.8" font-family="Times,serif" font-size="14.00">ExecutionStep contains ExploitationResult</text>
</g>
<!-- GeneticPayload -->
<g id="node15" class="node">
<title>GeneticPayload</title>
<polygon fill="none" stroke="black" points="1268,-0.5 1268,-113.5 1400,-113.5 1400,-0.5 1268,-0.5"/>
<text text-anchor="middle" x="1334" y="-98.3" font-family="Times,serif" font-size="14.00">GeneticPayload</text>
<text text-anchor="middle" x="1334" y="-83.3" font-family="Times,serif" font-size="14.00"> payload</text>
<text text-anchor="middle" x="1334" y="-68.3" font-family="Times,serif" font-size="14.00"> payload_type</text>
<text text-anchor="middle" x="1334" y="-53.3" font-family="Times,serif" font-size="14.00"> fitness</text>
<text text-anchor="middle" x="1334" y="-38.3" font-family="Times,serif" font-size="14.00"> mutation_count</text>
<text text-anchor="middle" x="1334" y="-23.3" font-family="Times,serif" font-size="14.00"> generation</text>
<text text-anchor="middle" x="1334" y="-8.3" font-family="Times,serif" font-size="14.00"> ...</text>
</g>
<!-- ExecutionStep&#45;&gt;GeneticPayload -->
<g id="edge1" class="edge">
<title>ExecutionStep&#45;&gt;GeneticPayload</title>
<path fill="none" stroke="black" d="M1350.02,-759.36C1341.93,-728.12 1334,-688.24 1334,-652 1334,-652 1334,-652 1334,-221 1334,-189.1 1334,-153.7 1334,-124.06"/>
<polygon fill="black" stroke="black" points="1337.5,-123.83 1334,-113.83 1330.5,-123.83 1337.5,-123.83"/>
<text text-anchor="middle" x="1476" y="-383.3" font-family="Times,serif" font-size="14.00">ExecutionStep contains GeneticPayload</text>
</g>
<!-- AnomalyResult -->
<g id="node16" class="node">
<title>AnomalyResult</title>
<polygon fill="none" stroke="black" points="1362,-602 1362,-700 1486,-700 1486,-602 1362,-602"/>
<text text-anchor="middle" x="1424" y="-684.8" font-family="Times,serif" font-size="14.00">AnomalyResult</text>
<text text-anchor="middle" x="1424" y="-669.8" font-family="Times,serif" font-size="14.00"> is_anomaly</text>
<text text-anchor="middle" x="1424" y="-654.8" font-family="Times,serif" font-size="14.00"> anomaly_type</text>
<text text-anchor="middle" x="1424" y="-639.8" font-family="Times,serif" font-size="14.00"> confidence</text>
<text text-anchor="middle" x="1424" y="-624.8" font-family="Times,serif" font-size="14.00"> evidence</text>
<text text-anchor="middle" x="1424" y="-609.8" font-family="Times,serif" font-size="14.00"> severity</text>
</g>
<!-- ExecutionStep&#45;&gt;AnomalyResult -->
<g id="edge3" class="edge">
<title>ExecutionStep&#45;&gt;AnomalyResult</title>
<path fill="none" stroke="black" d="M1362.23,-759.48C1362.75,-748.17 1364.4,-736.53 1368,-726 1370.02,-720.1 1372.71,-714.29 1375.82,-708.68"/>
<polygon fill="black" stroke="black" points="1378.86,-710.41 1381.02,-700.04 1372.86,-706.8 1378.86,-710.41"/>
<text text-anchor="middle" x="1508.5" y="-729.8" font-family="Times,serif" font-size="14.00">ExecutionStep contains AnomalyResult</text>
</g>
<!-- FuzzResult -->
<g id="node20" class="node">
<title>FuzzResult</title>
<polygon fill="none" stroke="black" points="1607.5,-462.5 1607.5,-575.5 1722.5,-575.5 1722.5,-462.5 1607.5,-462.5"/>
<text text-anchor="middle" x="1665" y="-560.3" font-family="Times,serif" font-size="14.00">FuzzResult</text>
<text text-anchor="middle" x="1665" y="-545.3" font-family="Times,serif" font-size="14.00"> url</text>
<text text-anchor="middle" x="1665" y="-530.3" font-family="Times,serif" font-size="14.00"> method</text>
<text text-anchor="middle" x="1665" y="-515.3" font-family="Times,serif" font-size="14.00"> payload</text>
<text text-anchor="middle" x="1665" y="-500.3" font-family="Times,serif" font-size="14.00"> payload_type</text>
<text text-anchor="middle" x="1665" y="-485.3" font-family="Times,serif" font-size="14.00"> status_code</text>
<text text-anchor="middle" x="1665" y="-470.3" font-family="Times,serif" font-size="14.00"> ...</text>
</g>
<!-- ExecutionStep&#45;&gt;FuzzResult -->
<g id="edge4" class="edge">
<title>ExecutionStep&#45;&gt;FuzzResult</title>
<path fill="none" stroke="black" d="M1427.56,-807.37C1501.73,-796.7 1620.98,-774.73 1649,-741 1684.34,-698.46 1685.03,-633.99 1678.85,-585.65"/>
<polygon fill="black" stroke="black" points="1682.29,-585.01 1677.43,-575.59 1675.36,-585.98 1682.29,-585.01"/>
<text text-anchor="middle" x="1785.5" y="-729.8" font-family="Times,serif" font-size="14.00">ExecutionStep contains FuzzResult</text>
</g>
<!-- BenchmarkResult -->
<g id="node21" class="node">
<title>BenchmarkResult</title>
<polygon fill="none" stroke="black" points="1875.5,-594.5 1875.5,-707.5 2018.5,-707.5 2018.5,-594.5 1875.5,-594.5"/>
<text text-anchor="middle" x="1947" y="-692.3" font-family="Times,serif" font-size="14.00">BenchmarkResult</text>
<text text-anchor="middle" x="1947" y="-677.3" font-family="Times,serif" font-size="14.00"> benchmark_type</text>
<text text-anchor="middle" x="1947" y="-662.3" font-family="Times,serif" font-size="14.00"> target_url</text>
<text text-anchor="middle" x="1947" y="-647.3" font-family="Times,serif" font-size="14.00"> payload_type</text>
<text text-anchor="middle" x="1947" y="-632.3" font-family="Times,serif" font-size="14.00"> population_size</text>
<text text-anchor="middle" x="1947" y="-617.3" font-family="Times,serif" font-size="14.00"> generations</text>
<text text-anchor="middle" x="1947" y="-602.3" font-family="Times,serif" font-size="14.00"> ...</text>
</g>
<!-- ExecutionStep&#45;&gt;BenchmarkResult -->
<g id="edge5" class="edge">
<title>ExecutionStep&#45;&gt;BenchmarkResult</title>
<path fill="none" stroke="black" d="M1427.51,-802.97C1493.14,-790.32 1601.13,-770.66 1695,-759 1720.44,-755.84 1905.45,-757.58 1925,-741 1932.39,-734.74 1937.51,-726.42 1941.02,-717.38"/>
<polygon fill="black" stroke="black" points="1944.38,-718.35 1944.12,-707.76 1937.72,-716.2 1944.38,-718.35"/>
<text text-anchor="middle" x="2086.5" y="-729.8" font-family="Times,serif" font-size="14.00">ExecutionStep contains BenchmarkResult</text>
</g>
<!-- ExecutionSession -->
<g id="node2" class="node">
<title>ExecutionSession</title>
<polygon fill="none" stroke="black" points="1704.5,-759.5 1704.5,-872.5 1847.5,-872.5 1847.5,-759.5 1704.5,-759.5"/>
<text text-anchor="middle" x="1776" y="-857.3" font-family="Times,serif" font-size="14.00">ExecutionSession</text>
<text text-anchor="middle" x="1776" y="-842.3" font-family="Times,serif" font-size="14.00"> session_id</text>
<text text-anchor="middle" x="1776" y="-827.3" font-family="Times,serif" font-size="14.00"> chain_id</text>
<text text-anchor="middle" x="1776" y="-812.3" font-family="Times,serif" font-size="14.00"> target_host</text>
<text text-anchor="middle" x="1776" y="-797.3" font-family="Times,serif" font-size="14.00"> status</text>
<text text-anchor="middle" x="1776" y="-782.3" font-family="Times,serif" font-size="14.00"> start_time</text>
<text text-anchor="middle" x="1776" y="-767.3" font-family="Times,serif" font-size="14.00"> ...</text>
</g>
<!-- ExecutionConfig -->
<g id="node3" class="node">
<title>ExecutionConfig</title>
<polygon fill="none" stroke="black" points="2093.5,-759.5 2093.5,-872.5 2228.5,-872.5 2228.5,-759.5 2093.5,-759.5"/>
<text text-anchor="middle" x="2161" y="-857.3" font-family="Times,serif" font-size="14.00">ExecutionConfig</text>
<text text-anchor="middle" x="2161" y="-842.3" font-family="Times,serif" font-size="14.00"> timeout</text>
<text text-anchor="middle" x="2161" y="-827.3" font-family="Times,serif" font-size="14.00"> max_retries</text>
<text text-anchor="middle" x="2161" y="-812.3" font-family="Times,serif" font-size="14.00"> retry_delay</text>
<text text-anchor="middle" x="2161" y="-797.3" font-family="Times,serif" font-size="14.00"> follow_redirects</text>
<text text-anchor="middle" x="2161" y="-782.3" font-family="Times,serif" font-size="14.00"> verify_ssl</text>
<text text-anchor="middle" x="2161" y="-767.3" font-family="Times,serif" font-size="14.00"> ...</text>
</g>
<!-- AuthCredentials -->
<g id="node4" class="node">
<title>AuthCredentials</title>
<polygon fill="none" stroke="black" points="2204.5,-602 2204.5,-700 2337.5,-700 2337.5,-602 2204.5,-602"/>
<text text-anchor="middle" x="2271" y="-684.8" font-family="Times,serif" font-size="14.00">AuthCredentials</text>
<text text-anchor="middle" x="2271" y="-669.8" font-family="Times,serif" font-size="14.00"> username</text>
<text text-anchor="middle" x="2271" y="-654.8" font-family="Times,serif" font-size="14.00"> password</text>
<text text-anchor="middle" x="2271" y="-639.8" font-family="Times,serif" font-size="14.00"> token</text>
<text text-anchor="middle" x="2271" y="-624.8" font-family="Times,serif" font-size="14.00"> api_key</text>
<text text-anchor="middle" x="2271" y="-609.8" font-family="Times,serif" font-size="14.00"> session_id</text>
</g>
<!-- SessionData -->
<g id="node5" class="node">
<title>SessionData</title>
<polygon fill="none" stroke="black" points="2489,-759.5 2489,-872.5 2603,-872.5 2603,-759.5 2489,-759.5"/>
<text text-anchor="middle" x="2546" y="-857.3" font-family="Times,serif" font-size="14.00">SessionData</text>
<text text-anchor="middle" x="2546" y="-842.3" font-family="Times,serif" font-size="14.00"> session_id</text>
<text text-anchor="middle" x="2546" y="-827.3" font-family="Times,serif" font-size="14.00"> target_host</text>
<text text-anchor="middle" x="2546" y="-812.3" font-family="Times,serif" font-size="14.00"> state</text>
<text text-anchor="middle" x="2546" y="-797.3" font-family="Times,serif" font-size="14.00"> auth_method</text>
<text text-anchor="middle" x="2546" y="-782.3" font-family="Times,serif" font-size="14.00"> cookies</text>
<text text-anchor="middle" x="2546" y="-767.3" font-family="Times,serif" font-size="14.00"> ...</text>
</g>
<!-- ShellConnection -->
<g id="node6" class="node">
<title>ShellConnection</title>
<polygon fill="none" stroke="black" points="2621.5,-759.5 2621.5,-872.5 2756.5,-872.5 2756.5,-759.5 2621.5,-759.5"/>
<text text-anchor="middle" x="2689" y="-857.3" font-family="Times,serif" font-size="14.00">ShellConnection</text>
<text text-anchor="middle" x="2689" y="-842.3" font-family="Times,serif" font-size="14.00"> connection_id</text>
<text text-anchor="middle" x="2689" y="-827.3" font-family="Times,serif" font-size="14.00"> port</text>
<text text-anchor="middle" x="2689" y="-812.3" font-family="Times,serif" font-size="14.00"> status</text>
<text text-anchor="middle" x="2689" y="-797.3" font-family="Times,serif" font-size="14.00"> remote_address</text>
<text text-anchor="middle" x="2689" y="-782.3" font-family="Times,serif" font-size="14.00"> remote_port</text>
<text text-anchor="middle" x="2689" y="-767.3" font-family="Times,serif" font-size="14.00"> ...</text>
</g>
<!-- ServiceInfo -->
<g id="node7" class="node">
<title>ServiceInfo</title>
<polygon fill="none" stroke="black" points="2361,-759.5 2361,-872.5 2471,-872.5 2471,-759.5 2361,-759.5"/>
<text text-anchor="middle" x="2416" y="-857.3" font-family="Times,serif" font-size="14.00">ServiceInfo</text>
<text text-anchor="middle" x="2416" y="-842.3" font-family="Times,serif" font-size="14.00"> service_id</text>
<text text-anchor="middle" x="2416" y="-827.3" font-family="Times,serif" font-size="14.00"> host</text>
<text text-anchor="middle" x="2416" y="-812.3" font-family="Times,serif" font-size="14.00"> port</text>
<text text-anchor="middle" x="2416" y="-797.3" font-family="Times,serif" font-size="14.00"> service_type</text>
<text text-anchor="middle" x="2416" y="-782.3" font-family="Times,serif" font-size="14.00"> protocol</text>
<text text-anchor="middle" x="2416" y="-767.3" font-family="Times,serif" font-size="14.00"> ...</text>
</g>
<!-- ServiceInfo&#45;&gt;AuthCredentials -->
<g id="edge7" class="edge">
<title>ServiceInfo&#45;&gt;AuthCredentials</title>
<path fill="none" stroke="black" d="M2360.99,-802.91C2327.84,-792.49 2288.24,-773.75 2268,-741 2262.39,-731.93 2260.03,-721.29 2259.56,-710.58"/>
<polygon fill="black" stroke="black" points="2263.06,-710.37 2259.65,-700.34 2256.06,-710.31 2263.06,-710.37"/>
<text text-anchor="middle" x="2401.5" y="-729.8" font-family="Times,serif" font-size="14.00">ServiceInfo contains AuthCredentials</text>
</g>
<!-- HostInfo -->
<g id="node8" class="node">
<title>HostInfo</title>
<polygon fill="none" stroke="black" points="2501.5,-594.5 2501.5,-707.5 2620.5,-707.5 2620.5,-594.5 2501.5,-594.5"/>
<text text-anchor="middle" x="2561" y="-692.3" font-family="Times,serif" font-size="14.00">HostInfo</text>
<text text-anchor="middle" x="2561" y="-677.3" font-family="Times,serif" font-size="14.00"> host_id</text>
<text text-anchor="middle" x="2561" y="-662.3" font-family="Times,serif" font-size="14.00"> hostname</text>
<text text-anchor="middle" x="2561" y="-647.3" font-family="Times,serif" font-size="14.00"> ip_address</text>
<text text-anchor="middle" x="2561" y="-632.3" font-family="Times,serif" font-size="14.00"> status</text>
<text text-anchor="middle" x="2561" y="-617.3" font-family="Times,serif" font-size="14.00"> discovered_at</text>
<text text-anchor="middle" x="2561" y="-602.3" font-family="Times,serif" font-size="14.00"> ...</text>
</g>
<!-- ServiceInfo&#45;&gt;HostInfo -->
<g id="edge6" class="edge">
<title>ServiceInfo&#45;&gt;HostInfo</title>
<path fill="none" stroke="black" d="M2471.17,-764.38C2474.08,-762.46 2477.03,-760.65 2480,-759 2503.96,-745.68 2520.14,-760.9 2539,-741 2545.35,-734.3 2549.95,-726.06 2553.27,-717.33"/>
<polygon fill="black" stroke="black" points="2556.64,-718.31 2556.4,-707.72 2549.98,-716.15 2556.64,-718.31"/>
<text text-anchor="middle" x="2655" y="-729.8" font-family="Times,serif" font-size="14.00">ServiceInfo contains HostInfo</text>
</g>
<!-- VulnerabilityInfo -->
<g id="node9" class="node">
<title>VulnerabilityInfo</title>
<polygon fill="none" stroke="black" points="0,-165.5 0,-278.5 136,-278.5 136,-165.5 0,-165.5"/>
<text text-anchor="middle" x="68" y="-263.3" font-family="Times,serif" font-size="14.00">VulnerabilityInfo</text>
<text text-anchor="middle" x="68" y="-248.3" font-family="Times,serif" font-size="14.00"> vuln_id</text>
<text text-anchor="middle" x="68" y="-233.3" font-family="Times,serif" font-size="14.00"> service_id</text>
<text text-anchor="middle" x="68" y="-218.3" font-family="Times,serif" font-size="14.00"> vuln_type</text>
<text text-anchor="middle" x="68" y="-203.3" font-family="Times,serif" font-size="14.00"> severity</text>
<text text-anchor="middle" x="68" y="-188.3" font-family="Times,serif" font-size="14.00"> description</text>
<text text-anchor="middle" x="68" y="-173.3" font-family="Times,serif" font-size="14.00"> ...</text>
</g>
<!-- ConnectionInfo -->
<g id="node10" class="node">
<title>ConnectionInfo</title>
<polygon fill="none" stroke="black" points="2774.5,-759.5 2774.5,-872.5 2911.5,-872.5 2911.5,-759.5 2774.5,-759.5"/>
<text text-anchor="middle" x="2843" y="-857.3" font-family="Times,serif" font-size="14.00">ConnectionInfo</text>
<text text-anchor="middle" x="2843" y="-842.3" font-family="Times,serif" font-size="14.00"> connection_id</text>
<text text-anchor="middle" x="2843" y="-827.3" font-family="Times,serif" font-size="14.00"> source_host</text>
<text text-anchor="middle" x="2843" y="-812.3" font-family="Times,serif" font-size="14.00"> target_host</text>
<text text-anchor="middle" x="2843" y="-797.3" font-family="Times,serif" font-size="14.00"> connection_type</text>
<text text-anchor="middle" x="2843" y="-782.3" font-family="Times,serif" font-size="14.00"> protocol</text>
<text text-anchor="middle" x="2843" y="-767.3" font-family="Times,serif" font-size="14.00"> ...</text>
</g>
<!-- AttackStrategy -->
<g id="node11" class="node">
<title>AttackStrategy</title>
<polygon fill="none" stroke="black" points="2929.5,-759.5 2929.5,-872.5 3054.5,-872.5 3054.5,-759.5 2929.5,-759.5"/>
<text text-anchor="middle" x="2992" y="-857.3" font-family="Times,serif" font-size="14.00">AttackStrategy</text>
<text text-anchor="middle" x="2992" y="-842.3" font-family="Times,serif" font-size="14.00"> strategy_id</text>
<text text-anchor="middle" x="2992" y="-827.3" font-family="Times,serif" font-size="14.00"> name</text>
<text text-anchor="middle" x="2992" y="-812.3" font-family="Times,serif" font-size="14.00"> description</text>
<text text-anchor="middle" x="2992" y="-797.3" font-family="Times,serif" font-size="14.00"> strategy_type</text>
<text text-anchor="middle" x="2992" y="-782.3" font-family="Times,serif" font-size="14.00"> target_scope</text>
<text text-anchor="middle" x="2992" y="-767.3" font-family="Times,serif" font-size="14.00"> ...</text>
</g>
<!-- VulnerabilityScore -->
<g id="node12" class="node">
<title>VulnerabilityScore</title>
<polygon fill="none" stroke="black" points="391,-330.5 391,-443.5 551,-443.5 551,-330.5 391,-330.5"/>
<text text-anchor="middle" x="471" y="-428.3" font-family="Times,serif" font-size="14.00">VulnerabilityScore</text>
<text text-anchor="middle" x="471" y="-413.3" font-family="Times,serif" font-size="14.00"> vulnerability</text>
<text text-anchor="middle" x="471" y="-398.3" font-family="Times,serif" font-size="14.00"> risk_score</text>
<text text-anchor="middle" x="471" y="-383.3" font-family="Times,serif" font-size="14.00"> risk_level</text>
<text text-anchor="middle" x="471" y="-368.3" font-family="Times,serif" font-size="14.00"> exploitability_score</text>
<text text-anchor="middle" x="471" y="-353.3" font-family="Times,serif" font-size="14.00"> impact_score</text>
<text text-anchor="middle" x="471" y="-338.3" font-family="Times,serif" font-size="14.00"> ...</text>
</g>
<!-- VulnerabilityScore&#45;&gt;VulnerabilityInfo -->
<g id="edge8" class="edge">
<title>VulnerabilityScore&#45;&gt;VulnerabilityInfo</title>
<path fill="none" stroke="black" d="M390.86,-335.05C386.26,-333.14 381.63,-331.44 377,-330 317.66,-311.59 147.27,-349.85 98,-312 89.95,-305.82 84.04,-297.38 79.71,-288.15"/>
<polygon fill="black" stroke="black" points="82.88,-286.66 75.88,-278.7 76.39,-289.29 82.88,-286.66"/>
<text text-anchor="middle" x="258.5" y="-300.8" font-family="Times,serif" font-size="14.00">VulnerabilityScore contains VulnerabilityInfo</text>
</g>
<!-- CommandInjectionVulnerability -->
<g id="node13" class="node">
<title>CommandInjectionVulnerability</title>
<polygon fill="none" stroke="black" points="749,-165.5 749,-278.5 991,-278.5 991,-165.5 749,-165.5"/>
<text text-anchor="middle" x="870" y="-263.3" font-family="Times,serif" font-size="14.00">CommandInjectionVulnerability</text>
<text text-anchor="middle" x="870" y="-248.3" font-family="Times,serif" font-size="14.00"> url</text>
<text text-anchor="middle" x="870" y="-233.3" font-family="Times,serif" font-size="14.00"> parameter</text>
<text text-anchor="middle" x="870" y="-218.3" font-family="Times,serif" font-size="14.00"> payload</text>
<text text-anchor="middle" x="870" y="-203.3" font-family="Times,serif" font-size="14.00"> evidence</text>
<text text-anchor="middle" x="870" y="-188.3" font-family="Times,serif" font-size="14.00"> confidence</text>
<text text-anchor="middle" x="870" y="-173.3" font-family="Times,serif" font-size="14.00"> ...</text>
</g>
<!-- VulnerabilityScore&#45;&gt;CommandInjectionVulnerability -->
<g id="edge9" class="edge">
<title>VulnerabilityScore&#45;&gt;CommandInjectionVulnerability</title>
<path fill="none" stroke="black" d="M425.29,-330.11C420.9,-318.47 420.72,-306.78 429,-297 468.09,-250.8 623.16,-233.43 738.42,-226.9"/>
<polygon fill="black" stroke="black" points="738.95,-230.38 748.75,-226.34 738.57,-223.39 738.95,-230.38"/>
<text text-anchor="middle" x="642.5" y="-300.8" font-family="Times,serif" font-size="14.00">VulnerabilityScore contains CommandInjectionVulnerability</text>
</g>
<!-- CommandInjectionVulnerability&#45;&gt;GeneticPayload -->
<g id="edge10" class="edge">
<title>CommandInjectionVulnerability&#45;&gt;GeneticPayload</title>
<path fill="none" stroke="black" d="M887.67,-165.29C894.11,-152.65 902.69,-140.48 914,-132 967.1,-92.22 1151.69,-71.87 1257.65,-63.24"/>
<polygon fill="black" stroke="black" points="1257.96,-66.73 1267.65,-62.44 1257.4,-59.75 1257.96,-66.73"/>
<text text-anchor="middle" x="1117" y="-135.8" font-family="Times,serif" font-size="14.00">CommandInjectionVulnerability contains GeneticPayload</text>
</g>
<!-- ExploitationResult&#45;&gt;VulnerabilityInfo -->
<g id="edge11" class="edge">
<title>ExploitationResult&#45;&gt;VulnerabilityInfo</title>
<path fill="none" stroke="black" d="M520.86,-645.95C386.45,-634.4 164.25,-592.44 60,-444 28.58,-399.27 34.59,-335.94 46.1,-288.53"/>
<polygon fill="black" stroke="black" points="49.54,-289.22 48.63,-278.67 42.76,-287.48 49.54,-289.22"/>
<text text-anchor="middle" x="221" y="-383.3" font-family="Times,serif" font-size="14.00">ExploitationResult contains VulnerabilityInfo</text>
</g>
<!-- ExploitationResult&#45;&gt;VulnerabilityScore -->
<g id="edge12" class="edge">
<title>ExploitationResult&#45;&gt;VulnerabilityScore</title>
<path fill="none" stroke="black" d="M537.95,-594.34C532.06,-588.64 526.65,-582.52 522,-576 496.49,-540.24 483.74,-492.37 477.36,-453.88"/>
<polygon fill="black" stroke="black" points="480.79,-453.15 475.8,-443.8 473.87,-454.22 480.79,-453.15"/>
<text text-anchor="middle" x="689" y="-515.3" font-family="Times,serif" font-size="14.00">ExploitationResult contains VulnerabilityScore</text>
</g>
<!-- ExploitationResult&#45;&gt;CommandInjectionVulnerability -->
<g id="edge13" class="edge">
<title>ExploitationResult&#45;&gt;CommandInjectionVulnerability</title>
<path fill="none" stroke="black" d="M741.08,-640.35C783.8,-630.68 828.88,-611.94 856,-576 888.95,-532.33 882.78,-378.14 876.01,-288.64"/>
<polygon fill="black" stroke="black" points="879.49,-288.29 875.22,-278.59 872.51,-288.83 879.49,-288.29"/>
<text text-anchor="middle" x="1096" y="-383.3" font-family="Times,serif" font-size="14.00">ExploitationResult contains CommandInjectionVulnerability</text>
</g>
<!-- ResponseAnalysis -->
<g id="node17" class="node">
<title>ResponseAnalysis</title>
<polygon fill="none" stroke="black" points="3073,-759.5 3073,-872.5 3217,-872.5 3217,-759.5 3073,-759.5"/>
<text text-anchor="middle" x="3145" y="-857.3" font-family="Times,serif" font-size="14.00">ResponseAnalysis</text>
<text text-anchor="middle" x="3145" y="-842.3" font-family="Times,serif" font-size="14.00"> status_code</text>
<text text-anchor="middle" x="3145" y="-827.3" font-family="Times,serif" font-size="14.00"> response_time</text>
<text text-anchor="middle" x="3145" y="-812.3" font-family="Times,serif" font-size="14.00"> content_length</text>
<text text-anchor="middle" x="3145" y="-797.3" font-family="Times,serif" font-size="14.00"> content_hash</text>
<text text-anchor="middle" x="3145" y="-782.3" font-family="Times,serif" font-size="14.00"> response_type</text>
<text text-anchor="middle" x="3145" y="-767.3" font-family="Times,serif" font-size="14.00"> ...</text>
</g>
<!-- ResponseDifferential -->
<g id="node18" class="node">
<title>ResponseDifferential</title>
<polygon fill="none" stroke="black" points="3235,-767 3235,-865 3413,-865 3413,-767 3235,-767"/>
<text text-anchor="middle" x="3324" y="-849.8" font-family="Times,serif" font-size="14.00">ResponseDifferential</text>
<text text-anchor="middle" x="3324" y="-834.8" font-family="Times,serif" font-size="14.00"> baseline_response</text>
<text text-anchor="middle" x="3324" y="-819.8" font-family="Times,serif" font-size="14.00"> test_response</text>
<text text-anchor="middle" x="3324" y="-804.8" font-family="Times,serif" font-size="14.00"> similarity_score</text>
<text text-anchor="middle" x="3324" y="-789.8" font-family="Times,serif" font-size="14.00"> differential_indicators</text>
<text text-anchor="middle" x="3324" y="-774.8" font-family="Times,serif" font-size="14.00"> reward_score</text>
</g>
<!-- PRNGConfig -->
<g id="node19" class="node">
<title>PRNGConfig</title>
<polygon fill="none" stroke="black" points="3431.5,-782 3431.5,-850 3592.5,-850 3592.5,-782 3431.5,-782"/>
<text text-anchor="middle" x="3512" y="-834.8" font-family="Times,serif" font-size="14.00">PRNGConfig</text>
<text text-anchor="middle" x="3512" y="-819.8" font-family="Times,serif" font-size="14.00"> use_secure_random</text>
<text text-anchor="middle" x="3512" y="-804.8" font-family="Times,serif" font-size="14.00"> seed</text>
<text text-anchor="middle" x="3512" y="-789.8" font-family="Times,serif" font-size="14.00"> hybrid_mode</text>
</g>
<!-- FuzzResult&#45;&gt;GeneticPayload -->
<g id="edge14" class="edge">
<title>FuzzResult&#45;&gt;GeneticPayload</title>
<path fill="none" stroke="black" d="M1660.85,-462.25C1655.95,-423.1 1645.27,-370.69 1622,-330 1569.13,-237.53 1474.82,-157.39 1408.56,-108.51"/>
<polygon fill="black" stroke="black" points="1410.36,-105.49 1400.22,-102.41 1406.23,-111.14 1410.36,-105.49"/>
<text text-anchor="middle" x="1739.5" y="-300.8" font-family="Times,serif" font-size="14.00">FuzzResult contains GeneticPayload</text>
</g>
<!-- PerformanceMetrics -->
<g id="node22" class="node">
<title>PerformanceMetrics</title>
<polygon fill="none" stroke="black" points="3610.5,-759.5 3610.5,-872.5 3773.5,-872.5 3773.5,-759.5 3610.5,-759.5"/>
<text text-anchor="middle" x="3692" y="-857.3" font-family="Times,serif" font-size="14.00">PerformanceMetrics</text>
<text text-anchor="middle" x="3692" y="-842.3" font-family="Times,serif" font-size="14.00"> start_time</text>
<text text-anchor="middle" x="3692" y="-827.3" font-family="Times,serif" font-size="14.00"> generation_times</text>
<text text-anchor="middle" x="3692" y="-812.3" font-family="Times,serif" font-size="14.00"> total_requests</text>
<text text-anchor="middle" x="3692" y="-797.3" font-family="Times,serif" font-size="14.00"> avg_request_time</text>
<text text-anchor="middle" x="3692" y="-782.3" font-family="Times,serif" font-size="14.00"> best_fitness_history</text>
<text text-anchor="middle" x="3692" y="-767.3" font-family="Times,serif" font-size="14.00"> ...</text>
</g>
<!-- FastCrawler -->
<g id="node23" class="node">
<title>FastCrawler</title>
<ellipse fill="none" stroke="black" cx="3859" cy="-816" rx="67.69" ry="18"/>
<text text-anchor="middle" x="3859" y="-812.3" font-family="Times,serif" font-size="14.00">FastCrawler</text>
</g>
<!-- BaseCrawler -->
<g id="node24" class="node">
<title>BaseCrawler</title>
<ellipse fill="none" stroke="black" cx="3859" cy="-651" rx="70.39" ry="18"/>
<text text-anchor="middle" x="3859" y="-647.3" font-family="Times,serif" font-size="14.00">BaseCrawler</text>
</g>
<!-- FastCrawler&#45;&gt;BaseCrawler -->
<g id="edge15" class="edge">
<title>FastCrawler&#45;&gt;BaseCrawler</title>
<path fill="none" stroke="black" d="M3859,-797.86C3859,-769.69 3859,-713.34 3859,-679.52"/>
<polygon fill="none" stroke="black" points="3862.5,-679.4 3859,-669.4 3855.5,-679.4 3862.5,-679.4"/>
<text text-anchor="middle" x="3887" y="-729.8" font-family="Times,serif" font-size="14.00">inherits</text>
</g>
</g>
</svg>
